<svg xmlns="http://www.w3.org/2000/svg" viewBox="0 0 800 800" width="800" height="800" role="img">
  <defs>
    <radialGradient id="g" cx="34%" cy="16%" r="85%">
      <stop offset="0%" stop-color="#ffffff"/>
      <stop offset="58%" stop-color="#eff0f0"/>
      <stop offset="100%" stop-color="#e0e3e4"/>
    </radialGradient>
  </defs>
  <rect width="800" height="800" fill="url(#g)"/>
  <g opacity="0.055" stroke="#3a434b" stroke-width="1">
    <path d="M0 200 H800 M0 400 H800 M0 600 H800 M200 0 V800 M400 0 V800 M600 0 V800"/>
  </g>
  
  <g fill="none" stroke="#3a434b" stroke-width="12" stroke-linejoin="round" stroke-linecap="round">
    <path d="M336 168 h 128 v 44 h -128 z" stroke-width="11"/>
    <rect x="318" y="212" width="164" height="52" rx="10" stroke-width="11"/>
    <path d="M300 264 h 200 a 12 12 0 0 1 12 12 v 300 a 36 36 0 0 1 -36 36 H 324 a 36 36 0 0 1 -36 -36 V 276 a 12 12 0 0 1 12 -12 Z"/>
    <circle cx="324" cy="535" r="9.1" fill="#8d4520" opacity="0.46" stroke="none"/>
    <circle cx="457" cy="428" r="11.6" fill="#8d4520" opacity="0.38" stroke="none"/>
    <circle cx="393" cy="402" r="9.0" fill="#8d4520" opacity="0.58" stroke="none"/>
    <circle cx="347" cy="506" r="9.3" fill="#8d4520" opacity="0.32" stroke="none"/>
    <circle cx="330" cy="502" r="7.9" fill="#8d4520" opacity="0.56" stroke="none"/>
    <circle cx="376" cy="385" r="8.9" fill="#8d4520" opacity="0.50" stroke="none"/>
    <circle cx="473" cy="456" r="12.6" fill="#8d4520" opacity="0.73" stroke="none"/>
    <circle cx="426" cy="435" r="10.6" fill="#8d4520" opacity="0.71" stroke="none"/>
    <circle cx="439" cy="385" r="8.8" fill="#8d4520" opacity="0.55" stroke="none"/>
    <circle cx="406" cy="478" r="7.8" fill="#8d4520" opacity="0.33" stroke="none"/>
    <circle cx="386" cy="553" r="9.1" fill="#8d4520" opacity="0.62" stroke="none"/>
    <circle cx="426" cy="444" r="7.9" fill="#8d4520" opacity="0.68" stroke="none"/>
    <circle cx="463" cy="409" r="11.7" fill="#8d4520" opacity="0.63" stroke="none"/>
    <circle cx="401" cy="517" r="7.0" fill="#8d4520" opacity="0.40" stroke="none"/>
    <circle cx="448" cy="486" r="7.1" fill="#8d4520" opacity="0.74" stroke="none"/>
    <circle cx="452" cy="382" r="9.1" fill="#8d4520" opacity="0.80" stroke="none"/>
    <circle cx="442" cy="556" r="7.2" fill="#8d4520" opacity="0.67" stroke="none"/>
    <circle cx="472" cy="402" r="8.3" fill="#8d4520" opacity="0.66" stroke="none"/>
    <circle cx="355" cy="383" r="9.9" fill="#8d4520" opacity="0.50" stroke="none"/>
    <circle cx="438" cy="399" r="9.3" fill="#8d4520" opacity="0.33" stroke="none"/>
    <circle cx="352" cy="409" r="12.6" fill="#8d4520" opacity="0.37" stroke="none"/>
    <circle cx="347" cy="395" r="12.2" fill="#8d4520" opacity="0.72" stroke="none"/>
    <circle cx="349" cy="453" r="12.2" fill="#8d4520" opacity="0.58" stroke="none"/>
    <circle cx="447" cy="518" r="10.1" fill="#8d4520" opacity="0.44" stroke="none"/>
    <circle cx="413" cy="486" r="11.1" fill="#8d4520" opacity="0.42" stroke="none"/>
    <circle cx="400" cy="486" r="8.6" fill="#8d4520" opacity="0.75" stroke="none"/>
    <circle cx="414" cy="475" r="9.3" fill="#8d4520" opacity="0.48" stroke="none"/>
    <circle cx="389" cy="537" r="8.2" fill="#8d4520" opacity="0.47" stroke="none"/>
    <circle cx="332" cy="511" r="7.6" fill="#8d4520" opacity="0.61" stroke="none"/>
    <circle cx="417" cy="430" r="8.8" fill="#8d4520" opacity="0.46" stroke="none"/>
    <circle cx="415" cy="373" r="8.1" fill="#8d4520" opacity="0.54" stroke="none"/>
    <circle cx="439" cy="535" r="12.4" fill="#8d4520" opacity="0.57" stroke="none"/>
    <circle cx="480" cy="526" r="11.5" fill="#8d4520" opacity="0.31" stroke="none"/>
    <circle cx="348" cy="510" r="9.9" fill="#8d4520" opacity="0.79" stroke="none"/>
    <path d="M348 296 h 104" stroke-width="7" opacity="0.3"/>
  </g>
</svg>
