<svg xmlns="http://www.w3.org/2000/svg" viewBox="0 0 800 800" width="800" height="800" role="img">
  <defs>
    <radialGradient id="g" cx="63%" cy="13%" r="85%">
      <stop offset="0%" stop-color="#ffffff"/>
      <stop offset="58%" stop-color="#f3efe8"/>
      <stop offset="100%" stop-color="#e7e0d5"/>
    </radialGradient>
  </defs>
  <rect width="800" height="800" fill="url(#g)"/>
  <g opacity="0.055" stroke="#3f4750" stroke-width="1">
    <path d="M0 200 H800 M0 400 H800 M0 600 H800 M200 0 V800 M400 0 V800 M600 0 V800"/>
  </g>
  
  <g fill="none" stroke="#3f4750" stroke-width="12" stroke-linejoin="round" stroke-linecap="round">
    <path d="M336 168 h 128 v 44 h -128 z" stroke-width="11"/>
    <rect x="318" y="212" width="164" height="52" rx="10" stroke-width="11"/>
    <path d="M300 264 h 200 a 12 12 0 0 1 12 12 v 300 a 36 36 0 0 1 -36 36 H 324 a 36 36 0 0 1 -36 -36 V 276 a 12 12 0 0 1 12 -12 Z"/>
    <circle cx="372" cy="385" r="7.9" fill="#a8461f" opacity="0.36" stroke="none"/>
    <circle cx="384" cy="465" r="11.0" fill="#a8461f" opacity="0.31" stroke="none"/>
    <circle cx="321" cy="559" r="12.4" fill="#a8461f" opacity="0.77" stroke="none"/>
    <circle cx="407" cy="392" r="10.2" fill="#a8461f" opacity="0.70" stroke="none"/>
    <circle cx="452" cy="479" r="7.4" fill="#a8461f" opacity="0.50" stroke="none"/>
    <circle cx="389" cy="533" r="12.2" fill="#a8461f" opacity="0.41" stroke="none"/>
    <circle cx="394" cy="399" r="11.1" fill="#a8461f" opacity="0.43" stroke="none"/>
    <circle cx="341" cy="434" r="12.6" fill="#a8461f" opacity="0.35" stroke="none"/>
    <circle cx="323" cy="482" r="9.4" fill="#a8461f" opacity="0.34" stroke="none"/>
    <circle cx="342" cy="452" r="7.4" fill="#a8461f" opacity="0.56" stroke="none"/>
    <circle cx="430" cy="544" r="8.0" fill="#a8461f" opacity="0.68" stroke="none"/>
    <circle cx="357" cy="427" r="11.6" fill="#a8461f" opacity="0.64" stroke="none"/>
    <circle cx="338" cy="506" r="9.5" fill="#a8461f" opacity="0.61" stroke="none"/>
    <circle cx="373" cy="462" r="11.7" fill="#a8461f" opacity="0.59" stroke="none"/>
    <circle cx="442" cy="485" r="8.3" fill="#a8461f" opacity="0.79" stroke="none"/>
    <circle cx="403" cy="410" r="12.6" fill="#a8461f" opacity="0.48" stroke="none"/>
    <circle cx="347" cy="470" r="11.5" fill="#a8461f" opacity="0.42" stroke="none"/>
    <circle cx="359" cy="465" r="7.3" fill="#a8461f" opacity="0.54" stroke="none"/>
    <circle cx="330" cy="549" r="7.1" fill="#a8461f" opacity="0.66" stroke="none"/>
    <circle cx="409" cy="485" r="11.8" fill="#a8461f" opacity="0.51" stroke="none"/>
    <circle cx="415" cy="430" r="8.3" fill="#a8461f" opacity="0.55" stroke="none"/>
    <circle cx="404" cy="448" r="8.3" fill="#a8461f" opacity="0.57" stroke="none"/>
    <circle cx="451" cy="477" r="8.0" fill="#a8461f" opacity="0.52" stroke="none"/>
    <circle cx="325" cy="501" r="8.5" fill="#a8461f" opacity="0.69" stroke="none"/>
    <circle cx="320" cy="493" r="12.9" fill="#a8461f" opacity="0.68" stroke="none"/>
    <circle cx="357" cy="485" r="7.3" fill="#a8461f" opacity="0.78" stroke="none"/>
    <circle cx="432" cy="520" r="12.5" fill="#a8461f" opacity="0.55" stroke="none"/>
    <circle cx="420" cy="537" r="10.9" fill="#a8461f" opacity="0.77" stroke="none"/>
    <circle cx="384" cy="379" r="11.7" fill="#a8461f" opacity="0.63" stroke="none"/>
    <circle cx="361" cy="494" r="12.4" fill="#a8461f" opacity="0.46" stroke="none"/>
    <circle cx="434" cy="443" r="7.3" fill="#a8461f" opacity="0.33" stroke="none"/>
    <circle cx="387" cy="448" r="12.2" fill="#a8461f" opacity="0.64" stroke="none"/>
    <circle cx="415" cy="542" r="7.8" fill="#a8461f" opacity="0.34" stroke="none"/>
    <circle cx="364" cy="486" r="10.4" fill="#a8461f" opacity="0.42" stroke="none"/>
    <path d="M348 296 h 104" stroke-width="7" opacity="0.3"/>
  </g>
</svg>
