<svg xmlns="http://www.w3.org/2000/svg" viewBox="0 0 800 800" width="800" height="800" role="img">
  <defs>
    <radialGradient id="g" cx="58%" cy="25%" r="85%">
      <stop offset="0%" stop-color="#ffffff"/>
      <stop offset="58%" stop-color="#f1f2f1"/>
      <stop offset="100%" stop-color="#e3e6e3"/>
    </radialGradient>
  </defs>
  <rect width="800" height="800" fill="url(#g)"/>
  <g opacity="0.055" stroke="#3d4644" stroke-width="1">
    <path d="M0 200 H800 M0 400 H800 M0 600 H800 M200 0 V800 M400 0 V800 M600 0 V800"/>
  </g>
  
  <g fill="none" stroke="#3d4644" stroke-width="12" stroke-linejoin="round" stroke-linecap="round">
    <path d="M336 168 h 128 v 44 h -128 z" stroke-width="11"/>
    <rect x="318" y="212" width="164" height="52" rx="10" stroke-width="11"/>
    <path d="M300 264 h 200 a 12 12 0 0 1 12 12 v 300 a 36 36 0 0 1 -36 36 H 324 a 36 36 0 0 1 -36 -36 V 276 a 12 12 0 0 1 12 -12 Z"/>
    <circle cx="465" cy="478" r="11.0" fill="#96502a" opacity="0.36" stroke="none"/>
    <circle cx="445" cy="482" r="10.7" fill="#96502a" opacity="0.75" stroke="none"/>
    <circle cx="366" cy="405" r="11.3" fill="#96502a" opacity="0.50" stroke="none"/>
    <circle cx="446" cy="378" r="9.4" fill="#96502a" opacity="0.63" stroke="none"/>
    <circle cx="477" cy="507" r="11.8" fill="#96502a" opacity="0.61" stroke="none"/>
    <circle cx="359" cy="531" r="11.5" fill="#96502a" opacity="0.33" stroke="none"/>
    <circle cx="398" cy="538" r="9.9" fill="#96502a" opacity="0.56" stroke="none"/>
    <circle cx="471" cy="501" r="11.7" fill="#96502a" opacity="0.59" stroke="none"/>
    <circle cx="386" cy="446" r="11.3" fill="#96502a" opacity="0.31" stroke="none"/>
    <circle cx="462" cy="384" r="7.5" fill="#96502a" opacity="0.47" stroke="none"/>
    <circle cx="468" cy="536" r="12.3" fill="#96502a" opacity="0.63" stroke="none"/>
    <circle cx="350" cy="457" r="12.1" fill="#96502a" opacity="0.77" stroke="none"/>
    <circle cx="477" cy="475" r="7.1" fill="#96502a" opacity="0.72" stroke="none"/>
    <circle cx="375" cy="504" r="7.9" fill="#96502a" opacity="0.61" stroke="none"/>
    <circle cx="409" cy="450" r="12.9" fill="#96502a" opacity="0.59" stroke="none"/>
    <circle cx="337" cy="504" r="8.0" fill="#96502a" opacity="0.46" stroke="none"/>
    <circle cx="338" cy="466" r="11.3" fill="#96502a" opacity="0.32" stroke="none"/>
    <circle cx="369" cy="428" r="12.5" fill="#96502a" opacity="0.49" stroke="none"/>
    <circle cx="438" cy="508" r="12.5" fill="#96502a" opacity="0.31" stroke="none"/>
    <circle cx="444" cy="384" r="7.8" fill="#96502a" opacity="0.48" stroke="none"/>
    <circle cx="437" cy="395" r="11.5" fill="#96502a" opacity="0.42" stroke="none"/>
    <circle cx="466" cy="475" r="12.5" fill="#96502a" opacity="0.57" stroke="none"/>
    <circle cx="419" cy="440" r="10.1" fill="#96502a" opacity="0.67" stroke="none"/>
    <circle cx="471" cy="451" r="8.1" fill="#96502a" opacity="0.32" stroke="none"/>
    <circle cx="385" cy="386" r="8.2" fill="#96502a" opacity="0.49" stroke="none"/>
    <circle cx="383" cy="465" r="11.6" fill="#96502a" opacity="0.80" stroke="none"/>
    <circle cx="461" cy="472" r="10.9" fill="#96502a" opacity="0.50" stroke="none"/>
    <circle cx="468" cy="483" r="8.0" fill="#96502a" opacity="0.37" stroke="none"/>
    <circle cx="337" cy="485" r="7.5" fill="#96502a" opacity="0.35" stroke="none"/>
    <circle cx="370" cy="541" r="11.1" fill="#96502a" opacity="0.55" stroke="none"/>
    <circle cx="452" cy="408" r="9.4" fill="#96502a" opacity="0.33" stroke="none"/>
    <circle cx="341" cy="497" r="12.4" fill="#96502a" opacity="0.32" stroke="none"/>
    <circle cx="388" cy="435" r="7.6" fill="#96502a" opacity="0.75" stroke="none"/>
    <circle cx="354" cy="459" r="8.5" fill="#96502a" opacity="0.60" stroke="none"/>
    <path d="M348 296 h 104" stroke-width="7" opacity="0.3"/>
  </g>
</svg>
