<svg xmlns="http://www.w3.org/2000/svg" viewBox="0 0 800 800" width="800" height="800" role="img">
  <defs>
    <radialGradient id="g" cx="44%" cy="31%" r="85%">
      <stop offset="0%" stop-color="#ffffff"/>
      <stop offset="58%" stop-color="#f3efe8"/>
      <stop offset="100%" stop-color="#e7e0d5"/>
    </radialGradient>
  </defs>
  <rect width="800" height="800" fill="url(#g)"/>
  <g opacity="0.055" stroke="#3f4750" stroke-width="1">
    <path d="M0 200 H800 M0 400 H800 M0 600 H800 M200 0 V800 M400 0 V800 M600 0 V800"/>
  </g>
  
  <g fill="none" stroke-linecap="round" stroke-linejoin="round">
    <g transform="translate(400 420) rotate(-78.0)">
      <path d="M0 0 V -223" stroke="#3f4750" stroke-width="7"/>
      <path d="M0 -138 q -34 -26 0 -80 q 34 26 0 80 Z" fill="#a8461f" opacity="0.35" stroke="#3f4750" stroke-width="5"/>
    </g>
    <g transform="translate(400 420) rotate(-59.9)">
      <path d="M0 0 V -211" stroke="#3f4750" stroke-width="7"/>
      <path d="M0 -131 q -34 -26 0 -76 q 34 26 0 76 Z" fill="#a8461f" opacity="0.32" stroke="#3f4750" stroke-width="5"/>
    </g>
    <g transform="translate(400 420) rotate(-37.7)">
      <path d="M0 0 V -238" stroke="#3f4750" stroke-width="7"/>
      <path d="M0 -147 q -34 -26 0 -86 q 34 26 0 86 Z" fill="#a8461f" opacity="0.44" stroke="#3f4750" stroke-width="5"/>
    </g>
    <g transform="translate(400 420) rotate(-19.0)">
      <path d="M0 0 V -237" stroke="#3f4750" stroke-width="7"/>
      <path d="M0 -147 q -34 -26 0 -85 q 34 26 0 85 Z" fill="#a8461f" opacity="0.32" stroke="#3f4750" stroke-width="5"/>
    </g>
    <g transform="translate(400 420) rotate(-1.6)">
      <path d="M0 0 V -170" stroke="#3f4750" stroke-width="7"/>
      <path d="M0 -105 q -34 -26 0 -61 q 34 26 0 61 Z" fill="#a8461f" opacity="0.32" stroke="#3f4750" stroke-width="5"/>
    </g>
    <g transform="translate(400 420) rotate(18.3)">
      <path d="M0 0 V -209" stroke="#3f4750" stroke-width="7"/>
      <path d="M0 -130 q -34 -26 0 -75 q 34 26 0 75 Z" fill="#a8461f" opacity="0.28" stroke="#3f4750" stroke-width="5"/>
    </g>
    <g transform="translate(400 420) rotate(35.7)">
      <path d="M0 0 V -185" stroke="#3f4750" stroke-width="7"/>
      <path d="M0 -115 q -34 -26 0 -67 q 34 26 0 67 Z" fill="#a8461f" opacity="0.38" stroke="#3f4750" stroke-width="5"/>
    </g>
    <g transform="translate(400 420) rotate(48.0)">
      <path d="M0 0 V -192" stroke="#3f4750" stroke-width="7"/>
      <path d="M0 -119 q -34 -26 0 -69 q 34 26 0 69 Z" fill="#a8461f" opacity="0.42" stroke="#3f4750" stroke-width="5"/>
    </g>
    <g transform="translate(400 420) rotate(66.6)">
      <path d="M0 0 V -200" stroke="#3f4750" stroke-width="7"/>
      <path d="M0 -124 q -34 -26 0 -72 q 34 26 0 72 Z" fill="#a8461f" opacity="0.31" stroke="#3f4750" stroke-width="5"/>
    </g>
    <path d="M340 424 h 120 v 74 a 20 20 0 0 1 -20 20 h -80 a 20 20 0 0 1 -20 -20 Z" stroke="#3f4750" stroke-width="12"/>
    <path d="M336 452 h 128 M336 484 h 128" stroke="#a8461f" stroke-width="8" opacity="0.55"/>
  </g>
</svg>
