<svg xmlns="http://www.w3.org/2000/svg" viewBox="0 0 800 800" width="800" height="800" role="img">
  <defs>
    <radialGradient id="g" cx="41%" cy="30%" r="85%">
      <stop offset="0%" stop-color="#ffffff"/>
      <stop offset="58%" stop-color="#f3efe8"/>
      <stop offset="100%" stop-color="#e7e0d5"/>
    </radialGradient>
  </defs>
  <rect width="800" height="800" fill="url(#g)"/>
  <g opacity="0.055" stroke="#3f4750" stroke-width="1">
    <path d="M0 200 H800 M0 400 H800 M0 600 H800 M200 0 V800 M400 0 V800 M600 0 V800"/>
  </g>
  
  <g fill="none" stroke="#3f4750" stroke-width="12" stroke-linejoin="round" stroke-linecap="round">
    <path d="M336 168 h 128 v 44 h -128 z" stroke-width="11"/>
    <rect x="318" y="212" width="164" height="52" rx="10" stroke-width="11"/>
    <path d="M300 264 h 200 a 12 12 0 0 1 12 12 v 300 a 36 36 0 0 1 -36 36 H 324 a 36 36 0 0 1 -36 -36 V 276 a 12 12 0 0 1 12 -12 Z"/>
    <path d="M310 380 h 180 v 174 a 12 12 0 0 1 -12 12 H 322 a 12 12 0 0 1 -12 -12 Z" fill="#a8461f" opacity="0.32" stroke="none"/>
    <path d="M310 380 q 44 -18 90 0 t 90 0" fill="none" stroke="#a8461f" stroke-width="7" opacity="0.5"/>
    <path d="M348 296 h 104" stroke-width="7" opacity="0.3"/>
  </g>
</svg>
