<svg xmlns="http://www.w3.org/2000/svg" viewBox="0 0 800 800" width="800" height="800" role="img">
  <defs>
    <radialGradient id="g" cx="59%" cy="32%" r="85%">
      <stop offset="0%" stop-color="#ffffff"/>
      <stop offset="58%" stop-color="#eff0f0"/>
      <stop offset="100%" stop-color="#e0e3e4"/>
    </radialGradient>
  </defs>
  <rect width="800" height="800" fill="url(#g)"/>
  <g opacity="0.055" stroke="#3a434b" stroke-width="1">
    <path d="M0 200 H800 M0 400 H800 M0 600 H800 M200 0 V800 M400 0 V800 M600 0 V800"/>
  </g>
  
  <g fill="none" stroke-linecap="round" stroke-linejoin="round">
    <g transform="translate(400 420) rotate(-77.7)">
      <path d="M0 0 V -220" stroke="#3a434b" stroke-width="7"/>
      <path d="M0 -137 q -34 -26 0 -79 q 34 26 0 79 Z" fill="#8d4520" opacity="0.49" stroke="#3a434b" stroke-width="5"/>
    </g>
    <g transform="translate(400 420) rotate(-54.6)">
      <path d="M0 0 V -217" stroke="#3a434b" stroke-width="7"/>
      <path d="M0 -134 q -34 -26 0 -78 q 34 26 0 78 Z" fill="#8d4520" opacity="0.23" stroke="#3a434b" stroke-width="5"/>
    </g>
    <g transform="translate(400 420) rotate(-35.2)">
      <path d="M0 0 V -205" stroke="#3a434b" stroke-width="7"/>
      <path d="M0 -127 q -34 -26 0 -74 q 34 26 0 74 Z" fill="#8d4520" opacity="0.28" stroke="#3a434b" stroke-width="5"/>
    </g>
    <g transform="translate(400 420) rotate(-19.0)">
      <path d="M0 0 V -214" stroke="#3a434b" stroke-width="7"/>
      <path d="M0 -133 q -34 -26 0 -77 q 34 26 0 77 Z" fill="#8d4520" opacity="0.52" stroke="#3a434b" stroke-width="5"/>
    </g>
    <g transform="translate(400 420) rotate(-0.5)">
      <path d="M0 0 V -230" stroke="#3a434b" stroke-width="7"/>
      <path d="M0 -142 q -34 -26 0 -83 q 34 26 0 83 Z" fill="#8d4520" opacity="0.30" stroke="#3a434b" stroke-width="5"/>
    </g>
    <g transform="translate(400 420) rotate(18.8)">
      <path d="M0 0 V -216" stroke="#3a434b" stroke-width="7"/>
      <path d="M0 -134 q -34 -26 0 -78 q 34 26 0 78 Z" fill="#8d4520" opacity="0.40" stroke="#3a434b" stroke-width="5"/>
    </g>
    <g transform="translate(400 420) rotate(37.1)">
      <path d="M0 0 V -196" stroke="#3a434b" stroke-width="7"/>
      <path d="M0 -122 q -34 -26 0 -71 q 34 26 0 71 Z" fill="#8d4520" opacity="0.51" stroke="#3a434b" stroke-width="5"/>
    </g>
    <g transform="translate(400 420) rotate(55.0)">
      <path d="M0 0 V -188" stroke="#3a434b" stroke-width="7"/>
      <path d="M0 -117 q -34 -26 0 -68 q 34 26 0 68 Z" fill="#8d4520" opacity="0.36" stroke="#3a434b" stroke-width="5"/>
    </g>
    <g transform="translate(400 420) rotate(68.6)">
      <path d="M0 0 V -184" stroke="#3a434b" stroke-width="7"/>
      <path d="M0 -114 q -34 -26 0 -66 q 34 26 0 66 Z" fill="#8d4520" opacity="0.35" stroke="#3a434b" stroke-width="5"/>
    </g>
    <path d="M340 424 h 120 v 74 a 20 20 0 0 1 -20 20 h -80 a 20 20 0 0 1 -20 -20 Z" stroke="#3a434b" stroke-width="12"/>
    <path d="M336 452 h 128 M336 484 h 128" stroke="#8d4520" stroke-width="8" opacity="0.55"/>
  </g>
</svg>
