<svg xmlns="http://www.w3.org/2000/svg" viewBox="0 0 800 800" width="800" height="800" role="img">
  <defs>
    <radialGradient id="g" cx="46%" cy="21%" r="85%">
      <stop offset="0%" stop-color="#ffffff"/>
      <stop offset="58%" stop-color="#eff0f0"/>
      <stop offset="100%" stop-color="#e0e3e4"/>
    </radialGradient>
  </defs>
  <rect width="800" height="800" fill="url(#g)"/>
  <g opacity="0.055" stroke="#3a434b" stroke-width="1">
    <path d="M0 200 H800 M0 400 H800 M0 600 H800 M200 0 V800 M400 0 V800 M600 0 V800"/>
  </g>
  
  <g fill="none" stroke="#3a434b" stroke-width="12" stroke-linejoin="round" stroke-linecap="round">
    <path d="M336 168 h 128 v 44 h -128 z" stroke-width="11"/>
    <rect x="318" y="212" width="164" height="52" rx="10" stroke-width="11"/>
    <path d="M300 264 h 200 a 12 12 0 0 1 12 12 v 300 a 36 36 0 0 1 -36 36 H 324 a 36 36 0 0 1 -36 -36 V 276 a 12 12 0 0 1 12 -12 Z"/>
    <circle cx="406" cy="399" r="11.8" fill="#8d4520" opacity="0.60" stroke="none"/>
    <circle cx="438" cy="501" r="11.4" fill="#8d4520" opacity="0.75" stroke="none"/>
    <circle cx="379" cy="476" r="8.2" fill="#8d4520" opacity="0.56" stroke="none"/>
    <circle cx="348" cy="448" r="8.0" fill="#8d4520" opacity="0.47" stroke="none"/>
    <circle cx="468" cy="537" r="7.1" fill="#8d4520" opacity="0.67" stroke="none"/>
    <circle cx="339" cy="425" r="8.6" fill="#8d4520" opacity="0.55" stroke="none"/>
    <circle cx="468" cy="429" r="9.4" fill="#8d4520" opacity="0.80" stroke="none"/>
    <circle cx="429" cy="530" r="11.4" fill="#8d4520" opacity="0.49" stroke="none"/>
    <circle cx="338" cy="469" r="9.0" fill="#8d4520" opacity="0.55" stroke="none"/>
    <circle cx="427" cy="526" r="8.4" fill="#8d4520" opacity="0.51" stroke="none"/>
    <circle cx="428" cy="402" r="12.0" fill="#8d4520" opacity="0.79" stroke="none"/>
    <circle cx="407" cy="500" r="10.5" fill="#8d4520" opacity="0.72" stroke="none"/>
    <circle cx="375" cy="546" r="7.2" fill="#8d4520" opacity="0.60" stroke="none"/>
    <circle cx="416" cy="552" r="10.5" fill="#8d4520" opacity="0.71" stroke="none"/>
    <circle cx="372" cy="492" r="11.0" fill="#8d4520" opacity="0.57" stroke="none"/>
    <circle cx="413" cy="403" r="7.2" fill="#8d4520" opacity="0.71" stroke="none"/>
    <circle cx="398" cy="484" r="7.7" fill="#8d4520" opacity="0.66" stroke="none"/>
    <circle cx="327" cy="384" r="9.8" fill="#8d4520" opacity="0.36" stroke="none"/>
    <circle cx="474" cy="540" r="8.3" fill="#8d4520" opacity="0.68" stroke="none"/>
    <circle cx="397" cy="382" r="9.6" fill="#8d4520" opacity="0.40" stroke="none"/>
    <circle cx="462" cy="497" r="11.7" fill="#8d4520" opacity="0.48" stroke="none"/>
    <circle cx="328" cy="443" r="12.0" fill="#8d4520" opacity="0.50" stroke="none"/>
    <circle cx="377" cy="419" r="11.4" fill="#8d4520" opacity="0.40" stroke="none"/>
    <circle cx="328" cy="435" r="8.2" fill="#8d4520" opacity="0.30" stroke="none"/>
    <circle cx="465" cy="494" r="9.6" fill="#8d4520" opacity="0.37" stroke="none"/>
    <circle cx="343" cy="530" r="11.8" fill="#8d4520" opacity="0.78" stroke="none"/>
    <circle cx="440" cy="511" r="11.3" fill="#8d4520" opacity="0.49" stroke="none"/>
    <circle cx="373" cy="488" r="9.6" fill="#8d4520" opacity="0.55" stroke="none"/>
    <circle cx="374" cy="466" r="11.5" fill="#8d4520" opacity="0.48" stroke="none"/>
    <circle cx="327" cy="475" r="12.1" fill="#8d4520" opacity="0.38" stroke="none"/>
    <circle cx="459" cy="419" r="7.1" fill="#8d4520" opacity="0.53" stroke="none"/>
    <circle cx="462" cy="557" r="12.5" fill="#8d4520" opacity="0.31" stroke="none"/>
    <circle cx="369" cy="456" r="9.3" fill="#8d4520" opacity="0.49" stroke="none"/>
    <circle cx="360" cy="425" r="8.5" fill="#8d4520" opacity="0.68" stroke="none"/>
    <path d="M348 296 h 104" stroke-width="7" opacity="0.3"/>
  </g>
</svg>
