<svg xmlns="http://www.w3.org/2000/svg" viewBox="0 0 800 800" width="800" height="800" role="img">
  <defs>
    <radialGradient id="g" cx="40%" cy="36%" r="85%">
      <stop offset="0%" stop-color="#ffffff"/>
      <stop offset="58%" stop-color="#f3efe8"/>
      <stop offset="100%" stop-color="#e7e0d5"/>
    </radialGradient>
  </defs>
  <rect width="800" height="800" fill="url(#g)"/>
  <g opacity="0.055" stroke="#3f4750" stroke-width="1">
    <path d="M0 200 H800 M0 400 H800 M0 600 H800 M200 0 V800 M400 0 V800 M600 0 V800"/>
  </g>
  
  <g fill="none" stroke="#3f4750" stroke-width="12" stroke-linejoin="round" stroke-linecap="round">
    <path d="M336 168 h 128 v 44 h -128 z" stroke-width="11"/>
    <rect x="318" y="212" width="164" height="52" rx="10" stroke-width="11"/>
    <path d="M300 264 h 200 a 12 12 0 0 1 12 12 v 300 a 36 36 0 0 1 -36 36 H 324 a 36 36 0 0 1 -36 -36 V 276 a 12 12 0 0 1 12 -12 Z"/>
    <circle cx="478" cy="560" r="10.2" fill="#a8461f" opacity="0.61" stroke="none"/>
    <circle cx="343" cy="547" r="7.5" fill="#a8461f" opacity="0.31" stroke="none"/>
    <circle cx="435" cy="411" r="12.7" fill="#a8461f" opacity="0.39" stroke="none"/>
    <circle cx="482" cy="504" r="8.2" fill="#a8461f" opacity="0.79" stroke="none"/>
    <circle cx="319" cy="421" r="8.2" fill="#a8461f" opacity="0.38" stroke="none"/>
    <circle cx="434" cy="377" r="10.4" fill="#a8461f" opacity="0.64" stroke="none"/>
    <circle cx="448" cy="457" r="8.4" fill="#a8461f" opacity="0.73" stroke="none"/>
    <circle cx="457" cy="428" r="9.7" fill="#a8461f" opacity="0.50" stroke="none"/>
    <circle cx="352" cy="465" r="11.0" fill="#a8461f" opacity="0.66" stroke="none"/>
    <circle cx="412" cy="381" r="7.5" fill="#a8461f" opacity="0.36" stroke="none"/>
    <circle cx="340" cy="539" r="10.6" fill="#a8461f" opacity="0.68" stroke="none"/>
    <circle cx="429" cy="503" r="10.5" fill="#a8461f" opacity="0.51" stroke="none"/>
    <circle cx="435" cy="485" r="12.2" fill="#a8461f" opacity="0.75" stroke="none"/>
    <circle cx="414" cy="463" r="9.1" fill="#a8461f" opacity="0.35" stroke="none"/>
    <circle cx="466" cy="380" r="12.8" fill="#a8461f" opacity="0.45" stroke="none"/>
    <circle cx="452" cy="507" r="9.3" fill="#a8461f" opacity="0.36" stroke="none"/>
    <circle cx="411" cy="437" r="12.5" fill="#a8461f" opacity="0.54" stroke="none"/>
    <circle cx="345" cy="471" r="8.8" fill="#a8461f" opacity="0.71" stroke="none"/>
    <circle cx="465" cy="538" r="12.9" fill="#a8461f" opacity="0.61" stroke="none"/>
    <circle cx="334" cy="476" r="8.5" fill="#a8461f" opacity="0.32" stroke="none"/>
    <circle cx="328" cy="546" r="12.9" fill="#a8461f" opacity="0.32" stroke="none"/>
    <circle cx="360" cy="467" r="11.0" fill="#a8461f" opacity="0.60" stroke="none"/>
    <circle cx="450" cy="400" r="7.3" fill="#a8461f" opacity="0.66" stroke="none"/>
    <circle cx="428" cy="536" r="9.9" fill="#a8461f" opacity="0.36" stroke="none"/>
    <circle cx="349" cy="442" r="10.8" fill="#a8461f" opacity="0.42" stroke="none"/>
    <circle cx="389" cy="488" r="8.8" fill="#a8461f" opacity="0.40" stroke="none"/>
    <circle cx="360" cy="408" r="8.2" fill="#a8461f" opacity="0.36" stroke="none"/>
    <circle cx="441" cy="506" r="10.2" fill="#a8461f" opacity="0.46" stroke="none"/>
    <circle cx="346" cy="552" r="10.7" fill="#a8461f" opacity="0.71" stroke="none"/>
    <circle cx="390" cy="445" r="10.1" fill="#a8461f" opacity="0.60" stroke="none"/>
    <circle cx="401" cy="452" r="9.1" fill="#a8461f" opacity="0.68" stroke="none"/>
    <circle cx="435" cy="414" r="10.7" fill="#a8461f" opacity="0.41" stroke="none"/>
    <circle cx="437" cy="424" r="11.8" fill="#a8461f" opacity="0.64" stroke="none"/>
    <circle cx="484" cy="430" r="12.3" fill="#a8461f" opacity="0.48" stroke="none"/>
    <path d="M348 296 h 104" stroke-width="7" opacity="0.3"/>
  </g>
</svg>
