<svg xmlns="http://www.w3.org/2000/svg" viewBox="0 0 800 800" width="800" height="800" role="img">
  <defs>
    <radialGradient id="g" cx="43%" cy="32%" r="85%">
      <stop offset="0%" stop-color="#ffffff"/>
      <stop offset="58%" stop-color="#eff0f0"/>
      <stop offset="100%" stop-color="#e0e3e4"/>
    </radialGradient>
  </defs>
  <rect width="800" height="800" fill="url(#g)"/>
  <g opacity="0.055" stroke="#3a434b" stroke-width="1">
    <path d="M0 200 H800 M0 400 H800 M0 600 H800 M200 0 V800 M400 0 V800 M600 0 V800"/>
  </g>
  
  <g fill="none" stroke="#3a434b" stroke-width="12" stroke-linejoin="round" stroke-linecap="round">
    <path d="M336 168 h 128 v 44 h -128 z" stroke-width="11"/>
    <rect x="318" y="212" width="164" height="52" rx="10" stroke-width="11"/>
    <path d="M300 264 h 200 a 12 12 0 0 1 12 12 v 300 a 36 36 0 0 1 -36 36 H 324 a 36 36 0 0 1 -36 -36 V 276 a 12 12 0 0 1 12 -12 Z"/>
    <circle cx="333" cy="479" r="9.9" fill="#8d4520" opacity="0.51" stroke="none"/>
    <circle cx="456" cy="521" r="9.5" fill="#8d4520" opacity="0.43" stroke="none"/>
    <circle cx="437" cy="452" r="9.4" fill="#8d4520" opacity="0.73" stroke="none"/>
    <circle cx="345" cy="526" r="11.2" fill="#8d4520" opacity="0.53" stroke="none"/>
    <circle cx="438" cy="449" r="11.6" fill="#8d4520" opacity="0.70" stroke="none"/>
    <circle cx="442" cy="375" r="9.8" fill="#8d4520" opacity="0.30" stroke="none"/>
    <circle cx="397" cy="546" r="9.5" fill="#8d4520" opacity="0.43" stroke="none"/>
    <circle cx="338" cy="411" r="11.7" fill="#8d4520" opacity="0.38" stroke="none"/>
    <circle cx="449" cy="456" r="11.1" fill="#8d4520" opacity="0.39" stroke="none"/>
    <circle cx="340" cy="430" r="11.7" fill="#8d4520" opacity="0.76" stroke="none"/>
    <circle cx="320" cy="412" r="9.8" fill="#8d4520" opacity="0.60" stroke="none"/>
    <circle cx="434" cy="519" r="7.6" fill="#8d4520" opacity="0.56" stroke="none"/>
    <circle cx="402" cy="440" r="11.1" fill="#8d4520" opacity="0.55" stroke="none"/>
    <circle cx="459" cy="504" r="8.7" fill="#8d4520" opacity="0.78" stroke="none"/>
    <circle cx="364" cy="453" r="7.9" fill="#8d4520" opacity="0.70" stroke="none"/>
    <circle cx="483" cy="501" r="11.5" fill="#8d4520" opacity="0.56" stroke="none"/>
    <circle cx="423" cy="406" r="10.8" fill="#8d4520" opacity="0.48" stroke="none"/>
    <circle cx="417" cy="463" r="8.8" fill="#8d4520" opacity="0.75" stroke="none"/>
    <circle cx="420" cy="423" r="12.5" fill="#8d4520" opacity="0.37" stroke="none"/>
    <circle cx="419" cy="528" r="12.4" fill="#8d4520" opacity="0.79" stroke="none"/>
    <circle cx="447" cy="434" r="10.6" fill="#8d4520" opacity="0.40" stroke="none"/>
    <circle cx="442" cy="462" r="9.4" fill="#8d4520" opacity="0.32" stroke="none"/>
    <circle cx="393" cy="432" r="8.0" fill="#8d4520" opacity="0.44" stroke="none"/>
    <circle cx="395" cy="446" r="8.8" fill="#8d4520" opacity="0.76" stroke="none"/>
    <circle cx="362" cy="536" r="8.4" fill="#8d4520" opacity="0.64" stroke="none"/>
    <circle cx="432" cy="542" r="11.0" fill="#8d4520" opacity="0.70" stroke="none"/>
    <circle cx="427" cy="529" r="7.3" fill="#8d4520" opacity="0.52" stroke="none"/>
    <circle cx="406" cy="496" r="10.5" fill="#8d4520" opacity="0.78" stroke="none"/>
    <circle cx="387" cy="448" r="9.5" fill="#8d4520" opacity="0.74" stroke="none"/>
    <circle cx="434" cy="403" r="11.4" fill="#8d4520" opacity="0.53" stroke="none"/>
    <circle cx="375" cy="452" r="11.1" fill="#8d4520" opacity="0.32" stroke="none"/>
    <circle cx="473" cy="487" r="9.3" fill="#8d4520" opacity="0.66" stroke="none"/>
    <circle cx="410" cy="463" r="12.6" fill="#8d4520" opacity="0.72" stroke="none"/>
    <circle cx="360" cy="393" r="9.1" fill="#8d4520" opacity="0.70" stroke="none"/>
    <path d="M348 296 h 104" stroke-width="7" opacity="0.3"/>
  </g>
</svg>
